<?xml version="1.0" encoding="UTF-8"?>
<!DOCTYPE svg  PUBLIC '-//W3C//DTD SVG 1.1//EN'  'http://www.w3.org/Graphics/SVG/1.1/DTD/svg11.dtd'>
<svg enable-background="new 0 0 399.91 242.91" version="1.1" viewBox="0 0 399.91 242.91" xml:space="preserve" xmlns="http://www.w3.org/2000/svg">
<path d="m91.51 232.4c-39.79 0-72.16-32.79-72.16-73.09 0-38.96 30.07-71.03 68.45-73l0.37 7.3c-34.54 1.77-61.59 30.63-61.59 65.7 0 36.27 29.13 65.78 64.94 65.78s64.94-29.51 64.94-65.78c0-18.4-7.68-36.08-21.08-48.51l4.89-5.38c14.88 13.81 23.42 33.46 23.42 53.9-0.02 40.29-32.39 73.08-72.18 73.08zm289.06-73.88c0-40.3-32.37-73.09-72.17-73.09-9.53 0-18.78 1.85-27.52 5.5l2.76 6.75c7.85-3.28 16.18-4.95 24.76-4.95 35.81 0 64.94 29.51 64.94 65.78s-29.13 65.78-64.94 65.78-64.94-29.51-64.94-65.78c0-8.63 1.62-17.03 4.83-24.94l-6.69-2.77c-3.56 8.8-5.37 18.12-5.37 27.71 0 40.3 32.37 73.09 72.16 73.09 39.8 0.01 72.18-32.78 72.18-73.08zm-240.57-45.7l0.05-0.08c9.15-15.55 12.76-31.8 14.17-42.7 1.53-11.82 0.91-19.94 0.88-20.25-0.68-9.4-2.49-34.36-30.02-38.78-0.88-0.14-1.76-0.25-2.64-0.33-21.88-2.01-35.04 15.36-36.19 16.95-3.99 5.05-5.36 10.03-4.07 14.79 2.15 7.94 10.86 11.74 12.51 12.4 8.55 4.11 35.13 2.29 38.15 2.06l-0.53-7.29c-10.73 0.79-29.59 1.12-34.56-1.4l-0.33-0.15c-1.94-0.75-7.2-3.58-8.27-7.58-0.64-2.39 0.3-5.2 2.79-8.34l0.11-0.15c0.11-0.16 11.48-15.71 29.74-14.04 0.71 0.07 1.44 0.16 2.15 0.27 19.28 3.09 22.92 17.96 23.95 32.12 0.01 0.08 0.58 7.75-0.84 18.74-1.32 10.21-4.69 25.41-13.19 39.87-0.85 1.35-24.49 38.6-47.39 48.33l2.8 6.74c25.29-10.72 49.7-49.54 50.73-51.18zm154.62-78.95s-13.29 1.41-18.49 3.25c-0.11 0.04-0.22 0.08-0.32 0.12-4.97 1.9-10.49 4.31-14.69 4.57 0 0-10.02 0.47-12.74 0.26 0 0-7.24 0.03-6.67 6.18 0 0-0.07 4.59 6.58 4.55l32.67 0.25h0.02c6.85-2.5 22.92-2.91 22.92-2.91s2.02-15.87-9.28-16.27zm-12.4 22.61c5.16-1.88 17.47-2.59 21.78-2.7l3.1-0.08 0.39-3.11c0.13-1.04 1.16-10.37-3.68-16.13-2.22-2.65-5.36-4.12-9.07-4.25l-0.25-0.01-0.25 0.03c-1.4 0.15-13.86 1.51-19.26 3.42-0.12 0.04-0.24 0.08-0.35 0.13l1.3 3.41-1.4-3.37c-0.77 0.29-1.55 0.6-2.34 0.91-4.08 1.6-8.29 3.25-11.24 3.43-0.07 0-6.63 0.31-10.44 0.31-1.07 0-1.61-0.02-1.87-0.04l-0.14-0.01h-0.14c-0.53 0-5.25 0.11-8.16 3.36-1.11 1.24-2.36 3.39-2.1 6.69 0.03 0.87 0.32 3.16 2.26 5.15 1.83 1.88 4.48 2.84 7.91 2.84l32.7 0.25h0.65l0.6-0.23zm-34-7.34c-1.61 0-2.72-0.37-2.88-0.95l-0.03-0.28c-0.08-0.86 0.15-1.12 0.24-1.22 0.51-0.58 1.91-0.93 2.75-0.97 0.55 0.03 1.28 0.05 2.22 0.05 3.97 0 10.49-0.3 10.82-0.32 4.12-0.25 8.87-2.11 13.46-3.91 0.77-0.3 1.53-0.6 2.24-0.87l0.28-0.11c3.84-1.36 13.6-2.62 17.4-3.04 1.56 0.1 2.7 0.63 3.57 1.65 1.56 1.85 2.05 4.96 2.13 7.43-5.06 0.26-14.54 0.98-20.02 2.77l-32.08-0.24h-0.1zm22.26 20.59l0.29-0.2 0.01-0.01c0.77-0.54 1.55-1.14 2.33-1.78 1.68-1.39 3.06-3.63 4.52-5.99 1.06-1.71 2.65-4.29 3.51-4.8 0.15-0.09 0.49-0.27 1.05-0.47l-2.43-6.88c-0.84 0.3-1.59 0.65-2.26 1.04-2.4 1.43-4.23 4.38-5.99 7.23-0.99 1.59-2.21 3.58-2.98 4.21-0.7 0.59-1.41 1.12-2.09 1.59l-0.21 0.15c-4.72 3.19-7.9 3.17-7.96 3.18l-107.04-0.14-0.01 7.31 106.78 0.14h0.19c1.35-0.01 6.14-0.34 12.29-4.58zm-26.95 105.55c0.44-0.22 0.94-0.47 1.69-0.76 4.95-1.91 36.01-4.09 54.42-5.02l0.27-0.02c5.14-0.66 12.12-2.13 13.32-7.3 1.01-4.35-2.88-7.71-4.42-8.84-17.96-20.67-32-47.45-33.15-49.68-3.53-8.91-4.78-14.69-5.47-18.74-1.74-10.16 1.43-16.44 1.46-16.5l-3.19-1.72 3.17 1.75-6.35-3.49c-0.18 0.34-4.41 8.4-2.22 21.21 1.13 6.58 2.96 12.86 5.95 20.38l0.14 0.31c0.61 1.19 15.11 29.42 34.51 51.64l0.32 0.36 0.38 0.26c0.54 0.37 1.13 0.93 1.5 1.38-0.77 0.43-2.62 1.19-6.73 1.72-5.62 0.28-48.92 2.56-56.5 5.49-1.07 0.41-1.78 0.77-2.31 1.03-0.08 0.04-0.15 0.07-0.21 0.11-0.64-0.16-2.06-0.66-3.67-1.23-3.03-1.07-8.09-2.86-16.53-5.51-17.08-5.38-29.35-14.09-36.47-25.89-9.94-16.49-24.48-44.13-25.68-53.98l-0.11-0.57c-1.54-5.41-3.24-11.64-3.39-12.68 0.01 0.05 0.07 0.54-0.08 1.17l-7.02-1.75c-0.26 1.08-0.37 1.53 3.47 15.02 2.18 15.88 26.4 56.18 26.65 56.59 8.06 13.37 21.68 23.15 40.49 29.07 8.31 2.62 13.31 4.38 16.29 5.44 3.13 1.11 4.81 1.7 6.27 1.7 1.03-0.03 1.95-0.33 3.2-0.95z" fill="#010202"/>
</svg>
